<svg xmlns="http://www.w3.org/2000/svg" viewBox="0 0 180 180">
  <defs>
    <linearGradient id="g" x1="20" y1="16" x2="163" y2="165" gradientUnits="userSpaceOnUse">
      <stop stop-color="#8b5cf6"/>
      <stop offset="0.48" stop-color="#ec4899"/>
      <stop offset="1" stop-color="#f97316"/>
    </linearGradient>
    <filter id="sh">
      <feDropShadow dx="0" dy="14" stdDeviation="14" flood-color="#12051f" flood-opacity="0.3"/>
    </filter>
  </defs>
  <rect width="180" height="180" rx="40" fill="#13091f"/>
  <path d="M36 86C36 54.75 61.5 30 93 30s56 24.75 56 55.5c0 31.5-24 57-57 57H78L51 156c-2.75 1.75-6.25-.85-5.4-3.95L52.1 129C43 121.5 36 106.5 36 86Z" fill="url(#g)" filter="url(#sh)"/>
  <path d="M67 95c0-17 9.75-30 24-30s24 13 24 30" fill="none" stroke="#fff7ed" stroke-width="13" stroke-linecap="round"/>
  <path d="M64.5 95h51M76 114h28" fill="none" stroke="#fff7ed" stroke-width="13" stroke-linecap="round"/>
</svg>
