<svg xmlns="http://www.w3.org/2000/svg" viewBox="0 0 192 192">
  <defs>
    <linearGradient id="g" x1="22" y1="18" x2="174" y2="177" gradientUnits="userSpaceOnUse">
      <stop stop-color="#8b5cf6"/>
      <stop offset="0.48" stop-color="#ec4899"/>
      <stop offset="1" stop-color="#f97316"/>
    </linearGradient>
    <filter id="sh" x="-20%" y="-20%" width="140%" height="140%">
      <feDropShadow dx="0" dy="15" stdDeviation="15" flood-color="#12051f" flood-opacity="0.3"/>
    </filter>
  </defs>
  <rect width="192" height="192" rx="51" fill="#13091f"/>
  <path d="M39 91.8C39 58.35 65.4 33 98.7 33S157 58.05 157 90.3c0 33-25.05 59.7-59.85 59.7H82.5L53.85 168c-2.85 1.8-6.6-.9-5.7-4.2l6.9-26.25C45 127.35 39 111.6 39 91.8Z" fill="url(#g)" filter="url(#sh)"/>
  <path d="M70.5 100.5c0-17.7 10.2-31.5 25.5-31.5s25.5 13.8 25.5 31.5" fill="none" stroke="#fff7ed" stroke-width="13.5" stroke-linecap="round"/>
  <path d="M67.5 100.5h57M81 121.5h30" fill="none" stroke="#fff7ed" stroke-width="13.5" stroke-linecap="round"/>
</svg>
